<?xml version="1.0" encoding="UTF-8" standalone="no"?>
<svg width="139px" height="45px" viewBox="0 0 139 45" version="1.1" xmlns="http://www.w3.org/2000/svg" xmlns:xlink="http://www.w3.org/1999/xlink">
    <!-- Generator: Sketch 3.7.2 (28276) - http://www.bohemiancoding.com/sketch -->
    <title>bus</title>
    <desc>Created with Sketch.</desc>
    <defs></defs>
    <g id="Page-1" stroke="none" stroke-width="1" fill="none" fill-rule="evenodd">
        <g id="bus" transform="translate(69.500000, 22.500000) scale(-1, 1) translate(-69.500000, -22.500000) ">
            <g id="Group">
                <polygon id="Shape" fill="#DB6E65" points="48 9 63 0 105.8 0 105.8 11 48 11"></polygon>
                <rect id="Rectangle-path" fill="#DB6E65" transform="translate(19.297800, 8.705800) rotate(180.000000) translate(-19.297800, -8.705800) " x="9.3478" y="5.6058" width="19.9" height="6.2"></rect>
                <path d="M0,37.6 L8.2,40.8 L125.4,40.8 L139,37.8 L139,7.5 L5.5,7.5" id="Shape" fill="#E57567"></path>
                <polygon id="Shape" fill="#FFFFFF" points="0.4 35.3 139 35.3 139 33.3 0.8 33.3"></polygon>
                <circle id="Oval" fill="#243A3A" cx="35.7" cy="37.9" r="6.4"></circle>
                <circle id="Oval" fill="#243A3A" cx="99.8" cy="37.9" r="6.4"></circle>
                <rect id="Rectangle-path" fill="#CC665E" transform="translate(71.399600, 25.668300) rotate(180.000000) translate(-71.399600, -25.668300) " x="67.9496" y="13.6183" width="6.9" height="24.1"></rect>
                <rect id="Rectangle-path" fill="#CC665E" transform="translate(81.307800, 25.668300) rotate(180.000000) translate(-81.307800, -25.668300) " x="77.8578" y="13.6183" width="6.9" height="24.1"></rect>
                <rect id="Rectangle-path" fill="#CC665E" transform="translate(12.875000, 25.668300) rotate(180.000000) translate(-12.875000, -25.668300) " x="9.425" y="13.6183" width="6.9" height="24.1"></rect>
                <rect id="Rectangle-path" fill="#CC665E" transform="translate(22.783200, 25.668300) rotate(180.000000) translate(-22.783200, -25.668300) " x="19.3332" y="13.6183" width="6.9" height="24.1"></rect>
                <rect id="Rectangle-path" fill="#CC665E" transform="translate(112.738300, 25.668300) rotate(180.000000) translate(-112.738300, -25.668300) " x="109.2883" y="13.6183" width="6.9" height="24.1"></rect>
                <rect id="Rectangle-path" fill="#CC665E" transform="translate(122.646500, 25.668300) rotate(180.000000) translate(-122.646500, -25.668300) " x="119.1965" y="13.6183" width="6.9" height="24.1"></rect>
                <rect id="Rectangle-path" fill="#CC665E" transform="translate(96.995500, 20.620900) rotate(180.000000) translate(-96.995500, -20.620900) " x="87.7455" y="13.6709" width="18.5" height="13.9"></rect>
                <rect id="Rectangle-path" fill="#CC665E" transform="translate(57.727400, 20.620900) rotate(180.000000) translate(-57.727400, -20.620900) " x="50.6274" y="13.6709" width="14.2" height="13.9"></rect>
                <polygon id="Shape" fill="#CC665E" points="1.3 30 6.8 30 6.8 13 4.3 13"></polygon>
                <rect id="Rectangle-path" fill="#CC665E" transform="translate(38.391500, 20.620900) rotate(180.000000) translate(-38.391500, -20.620900) " x="29.2415" y="13.6709" width="18.3" height="13.9"></rect>
                <rect id="Rectangle-path" fill="#CC665E" transform="translate(132.376100, 20.620900) rotate(180.000000) translate(-132.376100, -20.620900) " x="129.1261" y="13.6709" width="6.5" height="13.9"></rect>
            </g>
        </g>
    </g>
</svg>